<svg width="20" height="20" viewBox="0 0 20 20" fill="none" xmlns="http://www.w3.org/2000/svg">
<g clip-path="url(#clip0_174_241)">
<path d="M2.5 6.66666L9.075 11.05C9.34888 11.2327 9.67075 11.3302 10 11.3302C10.3292 11.3302 10.6511 11.2327 10.925 11.05L17.5 6.66666M4.16667 15.8333H15.8333C16.2754 15.8333 16.6993 15.6577 17.0118 15.3452C17.3244 15.0326 17.5 14.6087 17.5 14.1667V5.83333C17.5 5.3913 17.3244 4.96738 17.0118 4.65482C16.6993 4.34226 16.2754 4.16666 15.8333 4.16666H4.16667C3.72464 4.16666 3.30072 4.34226 2.98816 4.65482C2.67559 4.96738 2.5 5.3913 2.5 5.83333V14.1667C2.5 14.6087 2.67559 15.0326 2.98816 15.3452C3.30072 15.6577 3.72464 15.8333 4.16667 15.8333Z" stroke="#F25E5E" stroke-width="2.66667" stroke-linecap="round" stroke-linejoin="round"/>
<g clip-path="url(#clip1_174_241)">
<path d="M16.6666 3.33334H3.33329C2.41663 3.33334 1.67496 4.08334 1.67496 5L1.66663 15C1.66663 15.9167 2.41663 16.6667 3.33329 16.6667H16.6666C17.5833 16.6667 18.3333 15.9167 18.3333 15V5C18.3333 4.08334 17.5833 3.33334 16.6666 3.33334ZM16.6666 6.66667L9.99996 10.8333L3.33329 6.66667V5L9.99996 9.16667L16.6666 5V6.66667Z" fill="#F25E5E"/>
</g>
</g>
<defs>
<clipPath id="clip0_174_241">
<rect width="20" height="20" fill="white"/>
</clipPath>
<clipPath id="clip1_174_241">
<rect width="20" height="20" fill="white"/>
</clipPath>
</defs>
</svg>
