<svg width="20" height="20" viewBox="0 0 20 20" fill="none" xmlns="http://www.w3.org/2000/svg">
<path d="M17.4434 2.47461L15.3633 0.396484C15.1094 0.142578 14.7695 0 14.4102 0C14.0508 0 13.7109 0.140625 13.457 0.396484L11.2168 2.63281C10.9629 2.88672 10.8203 3.22852 10.8203 3.58789C10.8203 3.94922 10.9609 4.28711 11.2168 4.54297L12.9668 6.29492C12.5681 7.2238 11.9953 8.06777 11.2793 8.78125C10.5625 9.50195 9.72461 10.0703 8.79492 10.4727L7.04492 8.7207C6.79102 8.4668 6.45117 8.32422 6.0918 8.32422C5.91454 8.32356 5.73893 8.35829 5.57526 8.42638C5.4116 8.49446 5.26317 8.59452 5.13867 8.7207L2.89648 10.957C2.64258 11.2109 2.5 11.5527 2.5 11.9121C2.5 12.2734 2.64063 12.6113 2.89648 12.8672L4.97461 14.9453C5.4082 15.3789 6.00586 15.627 6.61914 15.627C6.74609 15.627 6.86914 15.6172 6.99414 15.5957C9.58008 15.1699 12.1465 13.793 14.2188 11.7227C16.2891 9.64844 17.6641 7.08203 18.0938 4.49414C18.2168 3.75977 17.9707 3.00391 17.4434 2.47461ZM16.709 4.26172C16.3281 6.56445 15.0898 8.86133 13.2246 10.7266C11.3594 12.5918 9.06445 13.8301 6.76172 14.2109C6.47266 14.2598 6.17578 14.1621 5.96484 13.9531L3.92383 11.9121L6.08789 9.74609L8.42773 12.0898L8.44531 12.1074L8.86719 11.9512C10.1463 11.4809 11.3079 10.738 12.2715 9.77418C13.235 8.81032 13.9774 7.64846 14.4473 6.36914L14.6035 5.94727L12.2441 3.58984L14.4082 1.42383L16.4492 3.46484C16.6602 3.67578 16.7578 3.97266 16.709 4.26172Z" fill="#F25E5E"/>
<path d="M17.5952 2.50178L15.5489 0.457315C15.4045 0.312326 15.2329 0.197287 15.044 0.118807C14.855 0.0403263 14.6524 -4.90357e-05 14.4478 4.4693e-08C14.0309 4.4693e-08 13.6389 0.163327 13.3449 0.457315L11.1429 2.65934C10.9979 2.8037 10.8828 2.97528 10.8044 3.16423C10.7259 3.35317 10.6855 3.55576 10.6856 3.76036C10.6856 4.17732 10.8489 4.56931 11.1429 4.8633L12.7531 6.47351C12.3762 7.30428 11.8521 8.06006 11.2063 8.70436C10.562 9.35178 9.80634 9.87772 8.97543 10.2569L7.36522 8.64671C7.22086 8.50173 7.04929 8.38669 6.86034 8.30821C6.67139 8.22973 6.4688 8.18935 6.2642 8.1894C5.84724 8.1894 5.45526 8.35273 5.16127 8.64671L2.95732 10.8468C2.81215 10.9914 2.69701 11.1633 2.61853 11.3526C2.54004 11.5419 2.49976 11.7448 2.5 11.9498C2.5 12.3667 2.66333 12.7587 2.95732 13.0527L4.99986 15.0952C5.46871 15.566 6.11625 15.8331 6.78109 15.8331C6.92135 15.8331 7.05586 15.8216 7.18844 15.7985C9.77861 15.3719 12.3476 13.9942 14.4209 11.9229C16.4923 9.85341 17.8681 7.2863 18.3004 4.68844C18.4311 3.89486 18.1678 3.07823 17.5952 2.50178Z" fill="#F25E5E"/>
</svg>
