<svg width="100" height="100" viewBox="0 0 100 100" fill="none" xmlns="http://www.w3.org/2000/svg">
<circle cx="50" cy="50" r="50" fill="#F88D8D"/>
<path d="M73.3395 68.3802L73.3395 68.38L57.8193 35.2981V23.0417H58.3991C60.0355 23.0417 60.9789 21.4414 60.9789 20.0209C60.9789 18.6004 60.0355 17 58.3991 17H42.6009C40.9645 17 40.0211 18.6004 40.0211 20.0209C40.0211 21.4414 40.9645 23.0417 42.6009 23.0417H43.1807V35.2981L27.6606 68.38C25.7965 72.3527 25.5035 76.1347 26.7715 78.9996C28.0683 81.9298 30.8948 83.668 34.7019 83.668H66.2981C70.1049 83.668 72.9315 81.9311 74.2285 79.0012C75.4965 76.1367 75.2034 72.3547 73.3395 68.3802ZM62.3043 57.4175H38.6957L48.2457 37.0571L48.3404 36.8553V36.6325V23.0417H52.6596V36.6325V36.8553L52.7543 37.0571L62.3043 57.4175Z" fill="#343C53" stroke="white" stroke-width="2"/>
</svg>
