<svg width="200" height="200" viewBox="0 0 200 200" fill="none" xmlns="http://www.w3.org/2000/svg">
<path fill-rule="evenodd" clip-rule="evenodd" d="M10 27.5C10 25.5109 10.7902 23.6033 12.1967 22.1967C13.6032 20.7902 15.5109 20 17.5 20H122.5C124.489 20 126.397 20.7902 127.803 22.1967C129.21 23.6033 130 25.5109 130 27.5C130 29.4892 129.21 31.3968 127.803 32.8033C126.397 34.2099 124.489 35 122.5 35H120V172.5C120 174.489 119.21 176.397 117.803 177.804C116.397 179.21 114.489 180 112.5 180H97.5C95.5108 180 93.6032 179.21 92.1967 177.804C90.7901 176.397 90 174.489 90 172.5V147.5C90 145.511 89.2098 143.603 87.8033 142.197C86.3967 140.79 84.4891 140 82.5 140H57.5C55.5109 140 53.6032 140.79 52.1967 142.197C50.7902 143.603 50 145.511 50 147.5V172.5C50 174.489 49.2098 176.397 47.8033 177.804C46.3968 179.21 44.4891 180 42.5 180H17.5C15.5109 180 13.6032 179.21 12.1967 177.804C10.7902 176.397 10 174.489 10 172.5C10 170.511 10.7902 168.603 12.1967 167.197C13.6032 165.79 15.5109 165 17.5 165H20V35H17.5C15.5109 35 13.6032 34.2099 12.1967 32.8033C10.7902 31.3968 10 29.4892 10 27.5ZM40 55.0001C40 53.674 40.5268 52.4022 41.4645 51.4645C42.4021 50.5268 43.6739 50.0001 45 50.0001H55C56.3261 50.0001 57.5978 50.5268 58.5355 51.4645C59.4732 52.4022 60 53.674 60 55.0001V65.0001C60 66.3262 59.4732 67.5979 58.5355 68.5356C57.5978 69.4733 56.3261 70.0001 55 70.0001H45C43.6739 70.0001 42.4021 69.4733 41.4645 68.5356C40.5268 67.5979 40 66.3262 40 65.0001V55.0001ZM45 90.0001C43.6739 90.0001 42.4021 90.5269 41.4645 91.4646C40.5268 92.4023 40 93.674 40 95.0001V105C40 106.326 40.5268 107.598 41.4645 108.536C42.4021 109.473 43.6739 110 45 110H55C56.3261 110 57.5978 109.473 58.5355 108.536C59.4732 107.598 60 106.326 60 105V95.0001C60 93.674 59.4732 92.4023 58.5355 91.4646C57.5978 90.5269 56.3261 90.0001 55 90.0001H45ZM80 55.0001C80 53.674 80.5267 52.4022 81.4644 51.4645C82.4021 50.5268 83.6739 50.0001 85 50.0001H95C96.326 50.0001 97.5978 50.5268 98.5355 51.4645C99.4732 52.4022 100 53.674 100 55.0001V65.0001C100 66.3262 99.4732 67.5979 98.5355 68.5356C97.5978 69.4733 96.326 70.0001 95 70.0001H85C83.6739 70.0001 82.4021 69.4733 81.4644 68.5356C80.5267 67.5979 80 66.3262 80 65.0001V55.0001ZM85 90.0001C83.6739 90.0001 82.4021 90.5269 81.4644 91.4646C80.5267 92.4023 80 93.674 80 95.0001V105C80 106.326 80.5267 107.598 81.4644 108.536C82.4021 109.473 83.6739 110 85 110H95C96.326 110 97.5978 109.473 98.5355 108.536C99.4732 107.598 100 106.326 100 105V95.0001C100 93.674 99.4732 92.4023 98.5355 91.4646C97.5978 90.5269 96.326 90.0001 95 90.0001H85ZM142.5 60.0001C140.511 60.0001 138.603 60.7903 137.197 62.1968C135.79 63.6033 135 65.511 135 67.5001V170C135 172.652 136.054 175.196 137.929 177.071C139.804 178.947 142.348 180 145 180H182.5C184.489 180 186.397 179.21 187.803 177.804C189.21 176.397 190 174.489 190 172.5C190 170.511 189.21 168.603 187.803 167.197C186.397 165.79 184.489 165 182.5 165H180V75.0001H182.5C184.489 75.0001 186.397 74.2099 187.803 72.8034C189.21 71.3969 190 69.4892 190 67.5001C190 65.511 189.21 63.6033 187.803 62.1968C186.397 60.7903 184.489 60.0001 182.5 60.0001H142.5ZM147.5 95.0001C147.5 93.674 148.027 92.4023 148.964 91.4646C149.902 90.5269 151.174 90.0001 152.5 90.0001H162.5C163.826 90.0001 165.098 90.5269 166.035 91.4646C166.973 92.4023 167.5 93.674 167.5 95.0001V105C167.5 106.326 166.973 107.598 166.035 108.536C165.098 109.473 163.826 110 162.5 110H152.5C151.174 110 149.902 109.473 148.964 108.536C148.027 107.598 147.5 106.326 147.5 105V95.0001ZM152.5 130C151.174 130 149.902 130.527 148.964 131.465C148.027 132.402 147.5 133.674 147.5 135V145C147.5 146.326 148.027 147.598 148.964 148.536C149.902 149.473 151.174 150 152.5 150H162.5C163.826 150 165.098 149.473 166.035 148.536C166.973 147.598 167.5 146.326 167.5 145V135C167.5 133.674 166.973 132.402 166.035 131.465C165.098 130.527 163.826 130 162.5 130H152.5Z" fill="#F25E5E"/>
</svg>
