<svg width="100" height="100" viewBox="0 0 100 100" fill="none" xmlns="http://www.w3.org/2000/svg">
<circle cx="50" cy="50" r="50" fill="#C3EEAE"/>
<path d="M50 18.5C32.6047 18.5 18.5 32.6047 18.5 50C18.5 67.3953 32.6047 81.5 50 81.5C67.3953 81.5 81.5 67.3953 81.5 50C81.5 32.6047 67.3953 18.5 50 18.5ZM62.4102 59.682L60.3992 62.4242C60.3555 62.4839 60.3004 62.5344 60.2371 62.5728C60.1738 62.6111 60.1035 62.6366 60.0303 62.6477C59.9571 62.6588 59.8825 62.6553 59.8106 62.6375C59.7388 62.6196 59.6712 62.5878 59.6117 62.5438L47.982 54.0641C47.9096 54.012 47.8507 53.9434 47.8103 53.8638C47.7699 53.7843 47.7492 53.6962 47.75 53.607V34.25C47.75 33.9406 48.0031 33.6875 48.3125 33.6875H51.6945C52.0039 33.6875 52.257 33.9406 52.257 34.25V51.6523L62.2836 58.9016C62.5367 59.0773 62.593 59.4289 62.4102 59.682Z" fill="#343C53"/>
</svg>
