<svg width="479" height="211" viewBox="0 0 479 211" fill="none" xmlns="http://www.w3.org/2000/svg">
<path d="M53 211H0L8 162.5H61.5L53 211Z" fill="white"/>
<path d="M68.5 211L76.5 162.5C152 162.5 161.5 88 76.5 88C-22 88 10.5 -1.52588e-05 76.5 0H211.5L205 42.5H79C266.5 66 177.5 211 140 211H68.5Z" fill="white"/>
<path d="M373 27L335.5 0L311 210H410.5L403 160.5H358.5L373 27Z" fill="white"/>
<path d="M425 210L416.5 160.5H470.5L478.5 210H425Z" fill="white"/>
<path fill-rule="evenodd" clip-rule="evenodd" d="M259 42.5H218.559L225.162 0H264.5L259 42.5ZM272.5 42.5L278 0H322L317.5 42.5H272.5ZM196 211L218.559 58.5H257L236.82 211H196ZM250.5 211H296.14L315.397 58.5H271L250.5 211Z" fill="white"/>
<path d="M382.5 23L350 0.5H418.5L412 43H380L382.5 23Z" fill="#F25E5E"/>
<path d="M15 42.5H79.5H205L211.5 0H75.5C35.5 0.8 18.5 28.6667 15 42.5Z" fill="#F25E5E"/>
</svg>
